<?xml version="1.0" encoding="UTF-8" standalone="no"?>
<!-- Created with Inkscape (http://www.inkscape.org/) -->

<svg
   xmlns:dc="http://purl.org/dc/elements/1.1/"
   xmlns:cc="http://creativecommons.org/ns#"
   xmlns:rdf="http://www.w3.org/1999/02/22-rdf-syntax-ns#"
   xmlns:svg="http://www.w3.org/2000/svg"
   xmlns="http://www.w3.org/2000/svg"
   xmlns:sodipodi="http://sodipodi.sourceforge.net/DTD/sodipodi-0.dtd"
   xmlns:inkscape="http://www.inkscape.org/namespaces/inkscape"
   version="1.1"
   id="svg2"
   xml:space="preserve"
   width="521.11401"
   height="160.29944"
   viewBox="0 0 521.11401 160.29944"
   sodipodi:docname="gtel-logo-15.svg"
   inkscape:version="0.92.2 2405546, 2018-03-11"><metadata
     id="metadata8"><rdf:RDF><cc:Work
         rdf:about=""><dc:format>image/svg+xml</dc:format><dc:type
           rdf:resource="http://purl.org/dc/dcmitype/StillImage" /><dc:title></dc:title></cc:Work></rdf:RDF></metadata><defs
     id="defs6" /><sodipodi:namedview
     pagecolor="#ffffff"
     bordercolor="#666666"
     borderopacity="1"
     objecttolerance="10"
     gridtolerance="10"
     guidetolerance="10"
     inkscape:pageopacity="0"
     inkscape:pageshadow="2"
     inkscape:window-width="1920"
     inkscape:window-height="1016"
     id="namedview4"
     showgrid="false"
     inkscape:zoom="1.2510745"
     inkscape:cx="292.51321"
     inkscape:cy="141.83682"
     inkscape:window-x="0"
     inkscape:window-y="27"
     inkscape:window-maximized="1"
     inkscape:current-layer="g10" /><g
     id="g10"
     inkscape:groupmode="layer"
     inkscape:label="gtel-logo-15"
     transform="matrix(1.3333333,0,0,-1.3333333,0,160.29944)"><g
       id="g12"><path
         d="m 29.156,29.154 c -7.461,7.465 -11.383,17.114 -11.793,27.223 -0.398,9.926 2.59,20.297 8.946,29.476 l 0.437,-0.269 C 22.07,76.803 20.266,67.283 21.313,58.236 22.379,49.021 26.398,40.303 33.352,33.35 40.301,26.4 49.023,22.377 58.234,21.314 c 9.047,-1.046 18.571,0.758 27.352,5.434 l 0.266,-0.441 C 76.676,19.955 66.305,16.963 56.375,17.365 46.266,17.771 36.617,21.693 29.156,29.154 Z M 16.727,16.728 C 6.441,27.01 0.918,40.197 0.105,53.9 -0.715,67.744 3.27,82.111 12.012,94.545 l 0.496,-0.301 C 6.063,82.236 3.691,68.959 5.387,56.271 7.059,43.768 12.684,31.838 22.262,22.264 31.84,12.686 43.77,7.061 56.273,5.389 68.957,3.689 82.234,6.064 94.246,12.51 l 0.301,-0.5 C 82.113,3.271 67.742,-0.717 53.902,0.103 40.199,0.92 27.012,6.443 16.727,16.728 Z m 6.539,6.536 C 14.414,32.115 9.703,43.502 9.078,55.365 8.461,67.15 11.879,79.408 19.289,90.119 l 0.309,-0.187 0.183,-0.114 C 14.34,79.521 12.305,68.228 13.676,57.459 15.051,46.639 19.859,36.342 28.102,28.1 36.34,19.861 46.641,15.049 57.461,13.674 68.23,12.307 79.523,14.342 89.82,19.783 L 89.934,19.6 90.121,19.291 C 79.406,11.881 67.152,8.463 55.367,9.08 43.5,9.701 32.113,14.416 23.266,23.264 Z"
         style="fill:#009a79;fill-opacity:1;fill-rule:evenodd;stroke:none"
         id="path14"
         inkscape:connector-curvature="0" /><path
         d="m 63.848,102.861 c 10.109,-0.41 19.757,-4.332 27.222,-11.793 7.461,-7.461 11.383,-17.109 11.789,-27.218 0.403,-9.926 -2.589,-20.301 -8.941,-29.477 l -0.441,0.266 c 4.675,8.781 6.48,18.304 5.433,27.347 -1.062,9.215 -5.086,17.938 -12.035,24.887 -6.953,6.953 -15.676,10.973 -24.887,12.039 -9.047,1.047 -18.566,-0.758 -27.347,-5.434 l -0.27,0.438 c 9.18,6.355 19.551,9.344 29.477,8.945 z m 2.476,17.258 c 13.703,-0.812 26.891,-6.336 37.172,-16.621 10.285,-10.285 15.809,-23.473 16.625,-37.176 0.82,-13.84 -3.168,-28.211 -11.906,-40.644 l -0.496,0.3 c 6.441,12.012 8.816,25.29 7.117,37.973 -1.672,12.504 -7.297,24.434 -16.875,34.012 -9.574,9.578 -21.504,15.203 -34.008,16.875 -12.687,1.695 -25.965,-0.676 -37.973,-7.121 l -0.3,0.496 c 12.433,8.742 26.8,12.726 40.644,11.906 z m -1.465,-8.973 c 11.864,-0.625 23.25,-5.335 32.102,-14.187 8.848,-8.848 13.562,-20.234 14.184,-32.102 0.617,-11.785 -2.801,-24.039 -10.211,-34.754 l -0.309,0.188 -0.184,0.113 c 5.442,10.297 7.477,21.59 6.11,32.36 -1.375,10.824 -6.184,21.121 -14.426,29.359 -8.242,8.242 -18.539,13.055 -29.359,14.43 -10.77,1.367 -22.063,-0.668 -32.36,-6.11 l -0.113,0.184 -0.188,0.309 c 10.711,7.41 22.969,10.828 34.754,10.21 z"
         style="fill:#0080b8;fill-opacity:1;fill-rule:evenodd;stroke:none"
         id="path16"
         inkscape:connector-curvature="0" /><path
         d="M 79.797,79.799 67.938,31.557 68.41,68.412 31.555,67.936 Z"
         style="fill:#009a79;fill-opacity:1;fill-rule:evenodd;stroke:none"
         id="path18"
         inkscape:connector-curvature="0" /><path
         d="m 292.504,87.291 h 36.824 V 103.76 H 207.063 V 87.291 h 27.273 V 33.9 h 19.359 v 53.391 h 19.45 V 33.9 h 56.183 v 16.465 h -36.824 v 10.231 h 36.824 V 77.061 H 292.504 Z M 334.648,33.9 h 56.188 v 16.465 h -36.824 v 53.395 h -19.364 z m -163.031,69.86 h 30.125 V 87.291 h -29.609 c -4.996,0 -9.539,-2.332 -12.836,-5.625 -7.117,-7.117 -7.117,-18.555 0,-25.672 3.293,-3.293 7.84,-5.629 12.836,-5.629 h 23.512 v 17.203 l -20.586,0.039 41.464,9.383 -1.636,-8.867 V 33.9 h -43.27 c -9.601,0 -18.336,3.93 -24.668,10.262 -13.679,13.676 -13.679,35.656 0,49.336 6.332,6.332 15.063,10.262 24.668,10.262 z"
         style="fill:#253f4d;fill-opacity:1;fill-rule:evenodd;stroke:none"
         id="path20"
         inkscape:connector-curvature="0" /><path
         d="m 152.055,21.029 h 1.414 l 1.429,-9.699 c 0.09,-0.566 0.157,-1.195 0.215,-1.875 0.055,-0.684 0.102,-1.441 0.141,-2.281 0.043,0.488 0.101,1.027 0.172,1.609 0.078,0.586 0.179,1.281 0.304,2.09 l 1.602,10.156 h 1.328 l 1.641,-10.261 c 0.074,-0.477 0.144,-0.997 0.207,-1.571 0.055,-0.57 0.109,-1.23 0.16,-1.98 0.09,0.746 0.168,1.519 0.25,2.328 0.082,0.805 0.133,1.25 0.148,1.328 l 1.411,10.156 h 1.39 l -2.57,-15.511 h -1.242 l -1.668,10.273 c -0.145,0.828 -0.242,1.516 -0.301,2.062 -0.055,0.543 -0.086,1.043 -0.094,1.497 -0.035,-0.571 -0.086,-1.153 -0.156,-1.735 -0.063,-0.586 -0.145,-1.172 -0.238,-1.762 L 155.859,5.518 H 154.57 Z M 165.586,5.518 V 21.029 H 167 V 5.518 Z m 5.941,14.207 v -5.614 h 0.668 c 0.789,0 1.364,0.223 1.723,0.664 0.363,0.442 0.543,1.149 0.543,2.121 0,1 -0.176,1.723 -0.531,2.165 -0.356,0.441 -0.934,0.664 -1.735,0.664 z m -1.414,1.304 h 1.711 c 1.489,0 2.543,-0.308 3.164,-0.929 0.621,-0.618 0.934,-1.668 0.934,-3.141 0,-1.234 -0.238,-2.168 -0.707,-2.797 -0.465,-0.633 -1.188,-0.98 -2.168,-1.051 l 3.375,-7.593 h -1.481 l -3.414,8.003 V 5.518 h -1.414 z m 8.305,0 h 4.875 v -1.304 h -3.461 v -5.594 h 3.418 v -1.262 h -3.418 V 6.822 h 3.566 V 5.518 h -4.98 z m 7.512,0 h 1.414 V 6.799 h 3.328 V 5.518 h -4.742 z m 6.246,0 h 4.871 v -1.304 h -3.457 v -5.594 h 3.414 V 12.869 H 193.59 V 6.822 h 3.566 V 5.518 h -4.98 z m 6.898,-13.117 c 0.379,-0.418 0.77,-0.734 1.18,-0.945 0.41,-0.215 0.84,-0.317 1.289,-0.317 0.719,0 1.312,0.258 1.773,0.786 0.465,0.523 0.7,1.195 0.7,2.027 0,0.351 -0.047,0.676 -0.149,0.976 -0.094,0.297 -0.238,0.571 -0.437,0.825 -0.305,0.39 -0.844,0.867 -1.617,1.437 -0.313,0.223 -0.54,0.399 -0.688,0.52 -0.789,0.636 -1.355,1.265 -1.703,1.882 -0.348,0.622 -0.52,1.313 -0.52,2.075 0,1.164 0.344,2.125 1.028,2.894 0.691,0.77 1.55,1.153 2.586,1.153 0.41,0 0.816,-0.071 1.214,-0.215 0.403,-0.141 0.793,-0.352 1.176,-0.633 v -1.828 c -0.312,0.437 -0.668,0.773 -1.062,1.004 -0.395,0.23 -0.821,0.343 -1.266,0.343 -0.672,0 -1.219,-0.238 -1.637,-0.714 -0.414,-0.477 -0.625,-1.106 -0.625,-1.875 0,-0.653 0.141,-1.211 0.422,-1.684 0.285,-0.473 0.957,-1.098 2.012,-1.883 1.09,-0.801 1.813,-1.496 2.156,-2.086 0.348,-0.597 0.524,-1.301 0.524,-2.113 0,-1.23 -0.356,-2.242 -1.063,-3.035 -0.707,-0.789 -1.609,-1.184 -2.699,-1.184 -0.477,0 -0.926,0.063 -1.348,0.18 -0.425,0.125 -0.843,0.309 -1.246,0.559 z m 7.969,0 c 0.375,-0.418 0.77,-0.734 1.176,-0.945 0.41,-0.215 0.844,-0.317 1.289,-0.317 0.722,0 1.312,0.258 1.777,0.786 0.465,0.523 0.695,1.195 0.695,2.027 0,0.351 -0.046,0.676 -0.144,0.976 -0.094,0.297 -0.238,0.571 -0.438,0.825 -0.304,0.39 -0.847,0.867 -1.617,1.437 -0.312,0.223 -0.543,0.399 -0.691,0.52 -0.785,0.636 -1.356,1.265 -1.699,1.882 -0.348,0.622 -0.524,1.313 -0.524,2.075 0,1.164 0.344,2.125 1.031,2.894 0.688,0.77 1.547,1.153 2.586,1.153 0.411,0 0.817,-0.071 1.215,-0.215 0.403,-0.141 0.793,-0.352 1.172,-0.633 v -1.828 c -0.312,0.437 -0.664,0.773 -1.062,1.004 -0.395,0.23 -0.817,0.343 -1.266,0.343 -0.668,0 -1.219,-0.238 -1.633,-0.714 -0.418,-0.477 -0.629,-1.106 -0.629,-1.875 0,-0.653 0.141,-1.211 0.426,-1.684 0.281,-0.473 0.953,-1.098 2.008,-1.883 1.09,-0.801 1.812,-1.496 2.156,-2.086 0.348,-0.597 0.524,-1.301 0.524,-2.113 0,-1.23 -0.356,-2.242 -1.063,-3.035 -0.707,-0.789 -1.605,-1.184 -2.699,-1.184 -0.473,0 -0.922,0.063 -1.348,0.18 -0.426,0.125 -0.84,0.309 -1.242,0.559 z m 13.793,11.856 h -2.414 v 1.261 h 6.242 V 19.768 H 222.25 V 5.518 h -1.414 z m 5.594,1.261 h 4.875 v -1.304 h -3.461 v -5.594 h 3.418 v -1.262 h -3.418 V 6.822 h 3.566 V 5.518 h -4.98 z m 7.508,0 h 1.414 V 6.799 h 3.332 V 5.518 h -4.746 z m 6.25,0 h 4.871 v -1.304 h -3.457 v -5.594 h 3.414 v -1.262 h -3.414 V 6.822 h 3.566 V 5.518 h -4.98 z M 253.09,5.932 c -0.297,-0.172 -0.613,-0.301 -0.957,-0.391 -0.348,-0.09 -0.699,-0.133 -1.063,-0.133 -1.402,0 -2.441,0.637 -3.121,1.906 -0.676,1.274 -1.015,3.223 -1.015,5.844 0,2.613 0.363,4.594 1.086,5.938 0.726,1.347 1.789,2.019 3.203,2.019 0.351,0 0.687,-0.035 1.004,-0.105 0.312,-0.071 0.617,-0.18 0.91,-0.328 v -1.524 c -0.336,0.223 -0.641,0.379 -0.922,0.481 -0.281,0.097 -0.559,0.152 -0.836,0.152 -1.016,0 -1.77,-0.523 -2.246,-1.566 -0.481,-1.039 -0.719,-2.668 -0.719,-4.875 0,-2.403 0.223,-4.106 0.664,-5.098 0.442,-0.996 1.18,-1.496 2.207,-1.496 0.211,0 0.418,0.023 0.61,0.066 0.195,0.043 0.386,0.106 0.57,0.192 0.109,0.05 0.215,0.109 0.32,0.179 0.106,0.063 0.207,0.137 0.305,0.215 z m 4.851,13.988 c -0.82,0 -1.421,-0.535 -1.808,-1.598 -0.387,-1.062 -0.578,-2.746 -0.578,-5.039 0,-2.293 0.191,-3.976 0.578,-5.047 0.387,-1.074 0.988,-1.609 1.808,-1.609 0.829,0 1.434,0.527 1.821,1.59 0.386,1.058 0.578,2.746 0.578,5.066 0,2.313 -0.192,4 -0.578,5.055 -0.387,1.055 -0.992,1.582 -1.821,1.582 z m -3.843,-6.66 c 0,2.718 0.308,4.722 0.933,6.023 0.625,1.293 1.594,1.942 2.91,1.942 1.317,0 2.289,-0.649 2.918,-1.942 0.625,-1.301 0.938,-3.305 0.938,-6.023 0,-2.719 -0.313,-4.727 -0.938,-6.008 -0.629,-1.289 -1.601,-1.93 -2.918,-1.93 -1.316,0 -2.285,0.641 -2.91,1.93 -0.625,1.281 -0.933,3.289 -0.933,6.008 z m 11.015,7.769 h 1.254 l 1.574,-10.051 c 0.028,-0.183 0.122,-0.98 0.286,-2.39 0.058,-0.567 0.109,-1.02 0.148,-1.348 0.051,0.567 0.117,1.16 0.203,1.785 0.082,0.621 0.184,1.274 0.297,1.953 l 1.68,10.051 h 1.211 l 1.89,-15.511 h -1.297 l -1.05,10.156 c 0,0.043 -0.008,0.121 -0.024,0.222 -0.101,1.157 -0.187,2.204 -0.254,3.145 -0.082,-0.957 -0.16,-1.73 -0.23,-2.328 -0.074,-0.594 -0.149,-1.117 -0.227,-1.57 l -1.617,-9.625 h -1.219 l -1.543,10.007 c -0.007,0.051 -0.015,0.129 -0.039,0.246 -0.199,1.25 -0.336,2.344 -0.418,3.27 -0.039,-0.473 -0.09,-1.078 -0.148,-1.816 -0.082,-1.082 -0.137,-1.696 -0.16,-1.836 l -1.121,-9.871 h -1.289 z m 16.176,-1.304 v -5.614 h 0.668 c 0.789,0 1.363,0.223 1.723,0.664 0.363,0.442 0.543,1.149 0.543,2.121 0,1 -0.176,1.723 -0.532,2.165 -0.355,0.441 -0.933,0.664 -1.734,0.664 z m -1.414,1.304 h 1.711 c 1.488,0 2.543,-0.308 3.164,-0.929 0.621,-0.618 0.934,-1.668 0.934,-3.141 0,-1.234 -0.239,-2.168 -0.707,-2.797 -0.465,-0.633 -1.188,-0.98 -2.168,-1.051 l 3.375,-7.593 h -1.481 l -3.414,8.003 V 5.518 h -1.414 z m 8.305,0 h 4.875 v -1.304 h -3.461 v -5.594 h 3.418 v -1.262 h -3.418 V 6.822 h 3.57 V 5.518 h -4.984 z m 6.902,-13.117 c 0.375,-0.418 0.766,-0.734 1.176,-0.945 0.41,-0.215 0.844,-0.317 1.289,-0.317 0.723,0 1.312,0.258 1.777,0.786 0.461,0.523 0.696,1.195 0.696,2.027 0,0.351 -0.047,0.676 -0.145,0.976 -0.094,0.297 -0.238,0.571 -0.441,0.825 -0.305,0.39 -0.844,0.867 -1.618,1.437 -0.308,0.223 -0.539,0.399 -0.687,0.52 -0.785,0.636 -1.356,1.265 -1.699,1.882 -0.348,0.622 -0.524,1.313 -0.524,2.075 0,1.164 0.344,2.125 1.032,2.894 0.687,0.77 1.546,1.153 2.585,1.153 0.407,0 0.813,-0.071 1.211,-0.215 0.407,-0.141 0.797,-0.352 1.176,-0.633 v -1.828 c -0.312,0.437 -0.668,0.773 -1.062,1.004 -0.395,0.23 -0.821,0.343 -1.266,0.343 -0.668,0 -1.219,-0.238 -1.633,-0.714 -0.418,-0.477 -0.629,-1.106 -0.629,-1.875 0,-0.653 0.141,-1.211 0.426,-1.684 0.281,-0.473 0.953,-1.098 2.008,-1.883 1.09,-0.801 1.812,-1.496 2.156,-2.086 0.348,-0.597 0.524,-1.301 0.524,-2.113 0,-1.23 -0.356,-2.242 -1.063,-3.035 -0.707,-0.789 -1.605,-1.184 -2.699,-1.184 -0.473,0 -0.922,0.063 -1.348,0.18 -0.426,0.125 -0.84,0.309 -1.242,0.559 z m 8.574,13.117 h 4.871 v -1.304 h -3.457 v -5.594 h 3.414 V 12.869 H 305.07 V 6.822 h 3.567 V 5.518 h -4.981 z m 9.746,-3.914 -1.277,-7.226 h 3.066 l -1.253,7.238 c -0.051,0.285 -0.102,0.625 -0.145,1.016 -0.039,0.394 -0.074,0.824 -0.105,1.293 -0.036,-0.45 -0.075,-0.86 -0.122,-1.247 -0.043,-0.378 -0.097,-0.738 -0.164,-1.074 z m -0.414,3.914 h 1.352 l 3.156,-15.511 h -1.437 l -0.606,3.132 h -3.551 l -0.543,-3.132 h -1.457 z m 7.559,-1.304 v -5.614 h 0.668 c 0.789,0 1.363,0.223 1.723,0.664 0.363,0.442 0.546,1.149 0.546,2.121 0,1 -0.179,1.723 -0.535,2.165 -0.355,0.441 -0.929,0.664 -1.734,0.664 z m -1.414,1.304 h 1.711 c 1.488,0 2.543,-0.308 3.164,-0.929 0.621,-0.618 0.933,-1.668 0.933,-3.141 0,-1.234 -0.238,-2.168 -0.703,-2.797 -0.468,-0.633 -1.191,-0.98 -2.168,-1.051 l 3.371,-7.593 h -1.48 l -3.414,8.003 V 5.518 h -1.414 z M 332.836,5.932 c -0.301,-0.172 -0.617,-0.301 -0.961,-0.391 -0.348,-0.09 -0.699,-0.133 -1.062,-0.133 -1.403,0 -2.442,0.637 -3.122,1.906 -0.675,1.274 -1.015,3.223 -1.015,5.844 0,2.613 0.363,4.594 1.086,5.938 0.726,1.347 1.789,2.019 3.203,2.019 0.355,0 0.687,-0.035 1.004,-0.105 0.312,-0.071 0.617,-0.18 0.91,-0.328 v -1.524 c -0.336,0.223 -0.641,0.379 -0.922,0.481 -0.281,0.097 -0.559,0.152 -0.836,0.152 -1.016,0 -1.769,-0.523 -2.246,-1.566 -0.48,-1.039 -0.719,-2.668 -0.719,-4.875 0,-2.403 0.223,-4.106 0.664,-5.098 0.442,-0.996 1.18,-1.496 2.207,-1.496 0.211,0 0.418,0.023 0.61,0.066 0.195,0.043 0.386,0.106 0.57,0.192 0.109,0.05 0.215,0.109 0.32,0.179 0.106,0.063 0.207,0.137 0.309,0.215 z m 1.766,15.097 h 1.414 v -6.242 h 3.695 v 6.242 h 1.414 V 5.518 h -1.414 v 8.027 h -3.695 V 5.518 h -1.414 z m 19.984,-2.703 -1.309,-0.539 c -0.16,0.688 -0.398,1.203 -0.711,1.559 -0.312,0.351 -0.687,0.531 -1.132,0.531 -0.766,0 -1.336,-0.543 -1.707,-1.625 -0.372,-1.086 -0.559,-2.738 -0.559,-4.969 0,-2.371 0.176,-4.074 0.527,-5.109 0.352,-1.031 0.922,-1.547 1.715,-1.547 0.61,0 1.059,0.273 1.348,0.812 0.293,0.539 0.437,1.387 0.437,2.543 v 2.344 h -2.156 v 1.305 h 3.547 V 10.15 c 0,-1.617 -0.27,-2.828 -0.813,-3.636 -0.543,-0.809 -1.351,-1.215 -2.429,-1.215 -1.262,0 -2.184,0.633 -2.762,1.898 -0.582,1.266 -0.871,3.285 -0.871,6.063 0,2.711 0.309,4.715 0.93,6.015 0.621,1.301 1.578,1.95 2.875,1.95 0.722,0 1.347,-0.25 1.875,-0.747 0.527,-0.5 0.925,-1.214 1.195,-2.152 z m 3.609,1.399 v -5.614 h 0.668 c 0.789,0 1.364,0.223 1.723,0.664 0.363,0.442 0.547,1.149 0.547,2.121 0,1 -0.18,1.723 -0.535,2.165 -0.356,0.441 -0.93,0.664 -1.735,0.664 z m -1.414,1.304 h 1.711 c 1.488,0 2.543,-0.308 3.164,-0.929 0.621,-0.618 0.934,-1.668 0.934,-3.141 0,-1.234 -0.238,-2.168 -0.703,-2.797 -0.469,-0.633 -1.192,-0.98 -2.168,-1.051 l 3.371,-7.593 h -1.481 l -3.414,8.003 V 5.518 h -1.414 z m 11.391,-1.109 c -0.824,0 -1.426,-0.535 -1.809,-1.598 -0.386,-1.062 -0.582,-2.746 -0.582,-5.039 0,-2.293 0.196,-3.976 0.582,-5.047 0.383,-1.074 0.985,-1.609 1.809,-1.609 0.828,0 1.433,0.527 1.816,1.59 0.391,1.058 0.582,2.746 0.582,5.066 0,2.313 -0.191,4 -0.582,5.055 -0.383,1.055 -0.988,1.582 -1.816,1.582 z m -3.848,-6.66 c 0,2.718 0.313,4.722 0.938,6.023 0.621,1.293 1.59,1.942 2.91,1.942 1.316,0 2.289,-0.649 2.918,-1.942 0.625,-1.301 0.937,-3.305 0.937,-6.023 0,-2.719 -0.312,-4.727 -0.937,-6.008 -0.629,-1.289 -1.602,-1.93 -2.918,-1.93 -1.32,0 -2.289,0.641 -2.91,1.93 -0.625,1.281 -0.938,3.289 -0.938,6.008 z m 10.055,7.769 h 1.414 V 9.939 c 0,-1.296 0.141,-2.175 0.414,-2.648 0.281,-0.473 0.762,-0.707 1.457,-0.707 0.699,0 1.18,0.234 1.457,0.707 0.277,0.473 0.414,1.352 0.414,2.648 v 11.09 h 1.414 V 9.939 c 0,-1.718 -0.25,-2.914 -0.746,-3.593 -0.5,-0.684 -1.344,-1.024 -2.531,-1.024 -1.195,0 -2.043,0.34 -2.543,1.024 -0.5,0.679 -0.75,1.875 -0.75,3.593 z m 11.137,-1.261 v -5.547 h 0.777 c 0.797,0 1.367,0.218 1.711,0.66 0.344,0.437 0.516,1.16 0.516,2.168 0,0.941 -0.192,1.629 -0.567,2.066 -0.375,0.434 -0.965,0.653 -1.765,0.653 z m -1.414,1.261 h 1.98 c 1.344,0 2.324,-0.328 2.938,-0.992 0.609,-0.66 0.914,-1.723 0.914,-3.18 0,-1.347 -0.297,-2.332 -0.887,-2.961 -0.586,-0.628 -1.512,-0.937 -2.774,-0.937 h -0.757 V 5.518 h -1.414 z"
         style="fill:#253f4d;fill-opacity:1;fill-rule:evenodd;stroke:none"
         id="path22"
         inkscape:connector-curvature="0" /></g></g></svg>